<!-- Generator: Adobe Illustrator 25.2.1, SVG Export Plug-In  -->
<svg version="1.1" xmlns="http://www.w3.org/2000/svg" xmlns:xlink="http://www.w3.org/1999/xlink" x="0px" y="0px"
	 width="1358.934px" height="645.324px" viewBox="0 0 1358.934 645.324"
	 style="overflow:visible;DISABLE-background:new 0 0 1358.934 645.324;" xml:space="preserve">
<style type="text/css">
	.st0{fill-rule:evenodd;clip-rule:evenodd;fill:#1E5866;}
	.st1{fill-rule:evenodd;clip-rule:evenodd;fill:#7B7F82;}
	.st2{fill:#7B7F82;}
	.st3{fill:#1E5866;}
</style>
<defs>
</defs>
<path class="st0" d="M281.92,592.103l2.351-0.183C283.488,591.984,282.705,592.046,281.92,592.103 M431.788,511.848l2.476,9.689
	c-38.686,39.35-90.933,65.315-149.177,70.313c10.603-0.915,21.013-2.524,31.173-4.78l-41.542-176.202l-52.938,49.996l33.703,131.688
	c2.327,0.085,4.661,0.151,7.005,0.175c-51.051-0.414-98.271-16.9-136.857-44.639l-19.897,18.063
	c44.208,33.225,99.167,52.92,158.727,52.92c146.057,0,264.464-118.405,264.464-264.462c0-93.203-48.221-175.137-121.069-222.237
	l9.322,39.537c52.201,43.683,85.411,109.308,85.411,182.7c0,39.217-9.482,76.213-26.277,108.832l0.394-0.767L373.514,26.254
	l-52.939,49.997l111.213,435.595V511.848z M264.461,90.146c17.689,0,34.973,1.741,51.688,5.057l1.771,6.918l-0.055,0.051
	l5.546,21.67c-18.852-4.804-38.602-7.361-58.951-7.361c-131.512,0-238.127,106.615-238.127,238.129
	c0,69.189,29.519,131.481,76.641,174.986l-19.566,17.762C32.072,499.12,0,430.614,0,354.61C0,208.55,118.405,90.146,264.461,90.146z
	"/>
<path class="st1" d="M332.557,249.112l-52.937,49.999l71.034,277.536c18.742-7.281,36.331-16.864,52.427-28.406L332.557,249.112z"/>
<g>
	<path class="st2" d="M690.671,549.227h-9.782v-33.439c0-4.092-0.128-7.55-0.256-10.49h8.505l0.448,4.348h0.128
		c2.366-3.324,5.882-5.05,10.423-5.05c6.84,0,13.045,5.946,13.045,15.918c0,11.386-7.291,16.753-14.262,16.753
		c-3.772,0-6.776-1.47-8.12-3.58h-0.128V549.227z M696.553,529.852c4.22,0,6.715-3.58,6.715-8.886c0-4.989-2.238-8.764-6.587-8.764
		c-2.747,0-5.178,2.11-5.818,4.928c-0.128,0.512-0.192,1.147-0.192,1.726v4.281c0,0.768,0.064,1.47,0.192,2.049
		C691.503,527.809,693.742,529.852,696.553,529.852z"/>
</g>
<g>
	<path class="st2" d="M798.277,515.721v-0.445c0-1.665-0.897-4.031-5.757-4.031c-3.196,0-6.452,1.153-8.563,2.366l-1.793-6.202
		c2.171-1.281,6.459-2.812,12.149-2.812c10.423,0,13.686,6.135,13.686,13.49v10.868c0,3.007,0.189,5.818,0.512,7.611h-8.764
		l-0.573-3.068h-0.195c-2.043,2.427-5.239,3.769-8.947,3.769c-6.331,0-10.106-4.537-10.106-9.526
		C779.926,519.557,787.214,515.721,798.277,515.721z M793.416,530.425c2.366,0,4.348-1.598,4.989-3.58
		c0.189-0.445,0.189-1.086,0.189-1.598v-3.513c-5.178,0.061-9.075,1.275-9.075,4.983
		C789.519,529.211,791.178,530.425,793.416,530.425z"/>
</g>
<g>
	<path class="st2" d="M878.451,515.593c0-4.605-0.061-7.611-0.256-10.295h8.38l0.378,5.757h0.256
		c1.604-4.605,5.373-6.459,8.441-6.459c0.896,0,1.348,0,2.11,0.128v9.142c-0.762-0.128-1.598-0.256-2.683-0.256
		c-3.519,0-6.013,1.921-6.648,4.922c-0.128,0.64-0.195,1.476-0.195,2.177v15.857h-9.782V515.593z"/>
</g>
<g>
	<path class="st2" d="M968.286,525.247v-12.789h-4.22v-7.16h4.22v-6.715l9.526-2.238v8.953h6.971v7.16h-6.971v11.319
		c0,3.775,0.896,5.501,3.769,5.501c1.281,0,2.238-0.128,2.946-0.323l0.061,7.422c-1.275,0.445-3.58,0.89-6.263,0.89
		c-3.196,0-5.818-1.086-7.416-2.744C969.115,532.663,968.286,529.724,968.286,525.247z"/>
</g>
<g>
	<path class="st2" d="M1053.125,515.276c0-3.903-0.128-7.166-0.256-9.978h8.508l0.445,4.348h0.189c1.281-2.043,4.415-5.05,9.66-5.05
		c6.391,0,11.185,4.22,11.185,13.429v18.54h-9.715V519.24c0-4.031-1.47-6.782-4.928-6.782c-2.683,0-4.281,1.854-4.922,3.647
		c-0.256,0.573-0.384,1.537-0.384,2.427v18.034h-9.782V515.276z"/>
</g>
<g>
	<path class="st2" d="M1167.44,504.597c10.099,0,14.003,7.861,14.003,15.601c0,1.726-0.256,3.135-0.384,3.836h-20.144
		c0.323,4.031,4.287,5.946,8.825,5.946c3.324,0,5.946-0.445,8.63-1.342l1.281,6.648c-3.196,1.281-7.16,1.982-11.319,1.982
		c-10.612,0-16.686-6.202-16.686-15.985C1151.644,513.354,1156.566,504.597,1167.44,504.597z M1172.362,517.386
		c0-2.305-1.086-6.331-5.501-6.331c-4.092,0-5.751,3.769-6.007,6.331H1172.362z"/>
</g>
<g>
	<path class="st2" d="M1249.913,515.593c0-4.605-0.061-7.611-0.256-10.295h8.38l0.378,5.757h0.256
		c1.604-4.605,5.373-6.459,8.441-6.459c0.896,0,1.348,0,2.11,0.128v9.142c-0.762-0.128-1.598-0.256-2.683-0.256
		c-3.519,0-6.013,1.921-6.648,4.922c-0.128,0.64-0.195,1.476-0.195,2.177v15.857h-9.782V515.593z"/>
</g>
<g>
	<path class="st2" d="M1336.997,528.065c1.793,1.086,5.501,2.36,8.312,2.36c2.94,0,4.22-0.957,4.22-2.616
		c0-1.598-1.025-2.366-4.537-3.58c-6.526-2.177-8.953-5.696-8.953-9.404c0-5.879,4.922-10.228,12.722-10.228
		c3.647,0,6.904,0.829,8.825,1.787l-1.726,6.715c-1.409-0.701-4.092-1.787-6.776-1.787c-2.366,0-3.708,1.019-3.708,2.555
		c0,1.47,1.214,2.238,5.05,3.58c5.946,2.049,8.441,5.05,8.502,9.654c0,5.818-4.605,10.167-13.551,10.167
		c-4.092,0-7.806-0.958-10.106-2.238L1336.997,528.065z"/>
</g>
<g>
	<path class="st3" d="M680.891,190.943c16.24-2.841,49.122-5.681,79.973-5.681c37.752,0,60.893,3.651,81.193,15.426
		c18.672,9.741,32.071,28.822,32.071,53.992c0,23.546-13.801,46.683-44.653,58.052v1.216c31.254,8.12,54.394,31.662,54.394,66.983
		c0,25.17-11.369,44.251-28.413,58.052c-19.898,15.831-53.182,24.762-107.582,24.762c-30.443,0-53.178-2.03-66.983-4.06V190.943z
		 M762.083,296.087c32.882,0,49.932-13.801,49.932-34.101c0-20.702-15.831-31.662-43.44-31.662c-13.393,0-21.104,0.811-26.383,2.027
		v63.737H762.083z M766.143,417.873c28.011,0,52.773-10.961,52.773-39.38c0-27.603-24.762-38.563-55.614-38.563h-21.11v76.724
		C748.282,417.873,755.585,417.873,766.143,417.873z"/>
</g>
<g>
	<path class="st2" d="M917.898,433.665l27.246-24.65c46.056-41.19,68.763-64.869,68.763-89.519c0-16.867-10.058-30.49-34.381-30.49
		c-18.168,0-34.06,9.081-45.087,17.191l-13.623-35.029c15.571-12.325,40.543-22.056,68.442-22.056
		c47.999,0,74.276,27.894,74.276,65.843c0,35.68-25.303,64.224-56.114,91.143l-19.463,16.219v0.648h79.469v40.543H917.898V433.665z"
		/>
</g>
<rect x="597.964" class="st1" width="7.971" height="645.324"/>
<path class="st3" d="M1358.934,310.8v25.722c0,70.262-56.971,127.212-127.233,127.212c-32.239,0-61.66-12.001-84.091-31.765
	c-1.914-1.656-3.785-3.398-5.592-5.205c-3.312-3.312-6.43-6.775-9.355-10.409c-1.613-2-3.161-4.043-4.667-6.151
	c-14.818-20.776-23.507-46.218-23.507-73.682V310.8c0-70.262,56.95-127.212,127.212-127.212c34.045,0,64.95,13.377,87.79,35.142
	l-34.819,34.798c-12.022-15.119-30.561-24.819-51.358-24.819h-3.226c-36.196,0-65.531,29.357-65.531,65.552v54.347
	c0,7.527,1.269,14.754,3.592,21.464c0.903,2.624,1.957,5.162,3.183,7.613c2.129,4.301,4.731,8.345,7.721,12.044
	c1.592,1.979,3.312,3.871,5.14,5.656c11.807,11.614,28.023,18.775,45.895,18.775h3.226c36.196,0,65.552-29.335,65.552-65.552
	v-54.347c0-4.237-0.409-8.366-1.183-12.366l40.583-40.583C1351.364,261.292,1358.934,285.143,1358.934,310.8z"/>
</svg>