<!-- Generator: Adobe Illustrator 25.2.1, SVG Export Plug-In  -->
<svg version="1.1" xmlns="http://www.w3.org/2000/svg" xmlns:xlink="http://www.w3.org/1999/xlink" x="0px" y="0px"
	 width="76.787px" height="24.311px" viewBox="0 0 76.787 24.311"
	 style="overflow:visible;DISABLE-background:new 0 0 76.787 24.311;" xml:space="preserve">
<style type="text/css">
	.st0{fill-rule:evenodd;clip-rule:evenodd;fill:#FFFFFF;}
	.st1{fill:#FFFFFF;}
</style>
<defs>
</defs>
<path class="st0" d="M0.007,22.291c0.386,0.084,2.588,1.796,3.192,1.978L3.22,13.782c1.073,0.561,9.603,5.366,9.87,5.38
	c0.365,0.014,9.28-5.226,9.891-5.366l0.007,10.494c0.267-0.133,0.14-0.105,0.393-0.14c0.224-0.414,2.771-1.922,2.862-2.132
	l0.014-13.636c-0.112-0.33,0.119-0.049-0.182-0.253c-0.133,0.196-5.759,3.255-6.496,3.704c-0.842,0.512-6.334,3.577-6.524,3.535
	L0,8.03L0.007,22.291z"/>
<path class="st0" d="M0.863,6.901c0.393,0.035,5.492,3.086,5.998,3.367c1.985,1.122,3.977,2.35,5.99,3.409
	c0.351,0.182,0.414,0.091,0.758-0.112C15.25,12.59,23.92,7.728,24.593,7.216c0.168-0.133,0.056-0.042,0.133-0.119
	c-0.246-0.231-0.73-0.498-1.066-0.708c-0.337-0.217-0.68-0.442-1.031-0.659c-0.449-0.288-0.603-0.526-1.157-0.189
	c-1.494,0.912-3.753,2.006-5.485,3.023c-0.744,0.428-1.487,0.828-2.224,1.221c-0.575,0.309-0.505,0.449-1.08,0.112L7.281,6.803
	C7.372,6.683,7.295,6.76,7.414,6.655l8.593-5.051c0.007-0.028,0.028-0.028,0.042-0.042c-0.456-0.365-1.27-0.786-1.712-1.101
	L14.17,0.279c-0.884-0.302-0.189-0.526-1.641,0.253L1.221,6.543C0.891,6.704,0.947,6.592,0.863,6.901L0.863,6.901z"/>
<path class="st0" d="M21.338,16.497l-2.876,1.571l-0.035,4.265c0.302,0.238,1.171,0.758,1.522,0.933l1.733,1.017
	c0.063-0.772,0.098-7.716-0.014-7.891L21.338,16.497z"/>
<path class="st0" d="M4.51,24.311c0.288-0.091,3.22-1.803,3.269-2.055l-0.014-4.16c-0.645-0.33-2.806-1.543-3.276-1.705L4.51,24.311
	z"/>
<path class="st0" d="M10.136,6.718c0.358,0.316,1.81,1.073,2.385,1.417c0.863,0.519,0.533,0.491,2.504-0.617
	c0.582-0.323,1.15-0.582,1.705-0.94l0.028-3.69L10.136,6.718z"/>
<path class="st0" d="M40.51,18.592c0.557,0.441,0.735,0.294,1.544,0.294c1.544,0,1.764,0.147,1.754-1.04l-0.021-3.14
	c-0.074-1.334-0.462-2.394-0.662-3.633c0.357,0.305,0.494,1.134,0.672,1.617c0.315,0.872,1.019,2.226,1.481,3.077
	c0.441,0.809,0.578,0.683,1.607,0.693c1.344,0,1.05,0.105,2.237-2.268l1.029-2.373c0.284-0.756,0.147-0.609,0.42-0.725
	c-0.242,1.166-0.599,2.195-0.714,3.528c-0.095,0.935-0.158,3.539,0.116,4.19c0.599,0.126,2.552,0.137,3.108-0.011
	c0.315-0.714,0.158-7.655,0.158-9.398c0-0.966,0.179-2.373-0.284-2.972c-0.662,0.084-2.499-0.158-2.93,0.137
	c-0.221,0.147-1.859,3.497-2.132,4.022c-0.305,0.578-0.693,1.533-1.061,2.006c-0.273-0.525-2.898-5.849-3.182-6.027
	c-0.347-0.221-2.541-0.2-2.919-0.011C40.174,7.272,40.783,16.775,40.51,18.592L40.51,18.592z"/>
<path class="st0" d="M58.561,12.06V9.509c1.418-0.052,2.993-0.294,3.056,1.218C61.679,12.323,59.873,12.144,58.561,12.06
	L58.561,12.06z M55.148,6.652c-0.116,1.029-0.126,11.467,0.032,12.002c0.273,0.41,2.909,0.231,3.213,0.158
	c0.326-0.956,0.168-2.478,0.158-3.633c1.922-0.105,4.662,0.42,6.048-1.911c0.168-0.273,0.242-0.525,0.431-0.725
	c0-1.019,1.019-4.337-2.205-5.712c-1.313-0.557-4.169-0.399-5.891-0.399c-0.326,0-0.714-0.021-1.05,0
	C55.274,6.474,55.463,6.547,55.148,6.652L55.148,6.652z"/>
<path class="st0" d="M30.209,7.366c-0.62,1.208-1.428,0.651-1.428,4.788c0,2.016-0.137,3.875,0.945,5.219
	c0.893,1.092,2.342,1.764,4.368,1.775c1.187,0.011,2.625-0.242,3.581-0.956l0.903-0.767l0.2-0.389
	c0.116-0.179,0.158-0.242,0.252-0.42c0.767-1.502-0.042-1.418-1.628-1.995c-1.344-0.494-1.061-0.263-1.607,0.651
	c-0.662,1.113-3.255,1.208-3.528-0.525c-0.126-0.746-0.053-1.901-0.053-2.688c0-0.872-0.063-1.859,0.483-2.342
	c0.452-0.42,1.512-0.567,2.258-0.315c1.008,0.326,0.756,0.903,1.292,1.512c0.756,0.095,2.499-0.62,3.066-0.998
	c0.126-1.617-1.67-3.15-3.507-3.56c-1.386-0.305-3.171-0.2-4.484,0.378C30.892,6.925,30.545,7.324,30.209,7.366L30.209,7.366z"/>
<path class="st0" d="M67.024,17.29c0.399,0.21,0.62,0.609,1.029,0.903c1.806,1.313,5.555,1.365,7.487-0.326
	c0.525-0.452,1.46-1.617,1.113-2.625c-0.378-0.021-1.502-0.515-2.016-0.704c-1.271-0.452-0.935,0.137-1.46,0.861
	c-0.399,0.557-1.155,0.746-2.1,0.62c-1.806-0.231-1.407-2.237-1.418-4.053c0-0.861-0.011-1.754,0.483-2.247
	c0.462-0.452,1.533-0.557,2.258-0.326c1.838,0.578-0.021,2.216,2.93,1.155c0.599-0.21,1.008-0.242,1.407-0.672
	c0.294-0.567-0.725-2.741-3.098-3.413c-1.796-0.515-4.043-0.294-5.408,0.578c-1.407,0.903-2.006,2.258-2.006,4.547
	c0,1.029-0.053,2.205,0.021,3.213C66.331,16.103,66.919,16.67,67.024,17.29L67.024,17.29z"/>
<polygon class="st1" points="32.971,21.889 33.338,21.889 34.735,23.726 34.693,23.768 34.693,21.889 35.092,21.889 35.092,24.262 
	34.724,24.262 33.317,22.456 33.37,22.414 33.37,24.262 32.971,24.262 "/>
<path class="st1" d="M38.368,21.889h0.273h0.137h0.504c0.231,0,0.431,0.032,0.588,0.105c0.168,0.063,0.294,0.158,0.378,0.284
	c0.084,0.126,0.126,0.284,0.126,0.462v0.672c0,0.179-0.042,0.336-0.126,0.462c-0.084,0.126-0.21,0.221-0.378,0.284
	c-0.168,0.074-0.357,0.105-0.588,0.105h-0.504h-0.137h-0.273V21.889z M38.778,22.204v1.743h0.515c0.21,0,0.378-0.053,0.494-0.137
	c0.116-0.095,0.179-0.221,0.179-0.389v-0.693c0-0.168-0.063-0.294-0.179-0.389c-0.116-0.084-0.284-0.137-0.494-0.137H38.778z"/>
<path class="st1" d="M44.658,24.283c-0.21,0-0.389-0.032-0.546-0.105c-0.147-0.063-0.263-0.168-0.336-0.294
	c-0.084-0.137-0.126-0.294-0.126-0.483v-1.512h0.41v1.523c0,0.179,0.053,0.305,0.158,0.399c0.105,0.095,0.252,0.147,0.441,0.147
	c0.2,0,0.347-0.053,0.452-0.147c0.105-0.095,0.158-0.221,0.158-0.399v-1.523h0.41v1.512c0,0.189-0.042,0.347-0.126,0.483
	c-0.074,0.126-0.189,0.231-0.347,0.294C45.057,24.251,44.878,24.283,44.658,24.283L44.658,24.283z"/>
<path class="st1" d="M49.992,24.283c-0.137,0-0.273-0.011-0.389-0.032c-0.126-0.021-0.242-0.053-0.347-0.095
	c-0.116-0.042-0.21-0.105-0.305-0.168l0,0l0.252-0.252l0,0c0.105,0.074,0.231,0.137,0.357,0.179
	c0.137,0.042,0.273,0.052,0.431,0.052c0.21,0,0.368-0.032,0.483-0.095c0.116-0.063,0.168-0.147,0.168-0.263V23.6
	c0-0.074-0.021-0.147-0.074-0.189c-0.053-0.053-0.116-0.084-0.2-0.105c-0.084-0.032-0.189-0.053-0.315-0.074
	c-0.011,0-0.011,0-0.021,0h-0.01h-0.032c-0.189-0.032-0.347-0.063-0.462-0.095c-0.126-0.031-0.231-0.095-0.315-0.189
	c-0.084-0.095-0.126-0.221-0.126-0.389l0,0c0-0.147,0.042-0.273,0.116-0.378c0.084-0.105,0.2-0.179,0.347-0.231
	c0.158-0.063,0.336-0.084,0.557-0.084c0.105,0,0.2,0.01,0.305,0.032c0.095,0.011,0.2,0.042,0.294,0.074
	c0.095,0.042,0.189,0.084,0.284,0.147l0,0l-0.231,0.263l0,0c-0.105-0.074-0.221-0.116-0.326-0.158
	c-0.105-0.032-0.221-0.042-0.326-0.042c-0.2,0-0.347,0.032-0.462,0.095c-0.105,0.063-0.158,0.158-0.158,0.273l0,0
	c0,0.084,0.032,0.147,0.084,0.2c0.053,0.042,0.126,0.074,0.21,0.095c0.084,0.021,0.2,0.053,0.347,0.074c0.01,0,0.01,0,0.01,0
	c0.011,0,0.011,0,0.021,0c0.01,0.011,0.01,0.011,0.021,0.011s0.011,0,0.021,0c0.179,0.032,0.315,0.063,0.431,0.105
	c0.126,0.042,0.221,0.105,0.294,0.2c0.084,0.084,0.116,0.21,0.116,0.368l0,0c0,0.147-0.031,0.263-0.116,0.368
	c-0.084,0.105-0.21,0.179-0.368,0.242C50.402,24.262,50.213,24.283,49.992,24.283L49.992,24.283z"/>
<polygon class="st1" points="54.329,21.889 56.356,21.889 56.356,22.204 55.547,22.204 55.547,24.262 55.138,24.262 55.138,22.204 
	54.329,22.204 "/>
<path class="st1" d="M61.07,23.222l0.662,1.04h-0.483l-0.609-1.008h-0.599v1.008h-0.41v-2.373h0.179h0.231h0.735
	c0.168,0,0.305,0.032,0.431,0.084c0.126,0.063,0.231,0.137,0.294,0.242c0.074,0.105,0.105,0.221,0.105,0.357l0,0
	c0,0.137-0.032,0.263-0.105,0.357c-0.074,0.105-0.168,0.189-0.294,0.242C61.165,23.191,61.112,23.212,61.07,23.222L61.07,23.222z
	 M60.041,22.939h0.746c0.084,0,0.147-0.011,0.21-0.042c0.053-0.032,0.105-0.074,0.137-0.126c0.032-0.063,0.042-0.126,0.042-0.2l0,0
	c0-0.074-0.011-0.137-0.042-0.189c-0.032-0.053-0.084-0.105-0.137-0.126c-0.063-0.031-0.126-0.052-0.21-0.052h-0.746V22.939z"/>
<path class="st1" d="M69.471,23.422h0.903l-0.452-1.071L69.471,23.422z M70.5,23.737h-1.155l-0.221,0.525h-0.431l1.061-2.373h0.336
	l1.061,2.373H70.72L70.5,23.737z"/>
<rect x="65.008" y="21.889" class="st1" width="0.399" height="2.373"/>
<polygon class="st1" points="74.837,23.947 76.275,23.947 76.275,24.262 74.837,24.262 74.637,24.262 74.427,24.262 74.427,21.889 
	74.837,21.889 "/>
<rect x="29.285" y="21.889" class="st1" width="0.399" height="2.373"/>
</svg>