<!-- Generator: Adobe Illustrator 25.2.1, SVG Export Plug-In  -->
<svg version="1.1" xmlns="http://www.w3.org/2000/svg" xmlns:xlink="http://www.w3.org/1999/xlink" x="0px" y="0px" width="851.2px"
	 height="241.818px" viewBox="0 0 851.2 241.818" style="overflow:visible;disable-background:new 0 0 851.2 241.818;"
	 xml:space="preserve">
<style type="text/css">
	.st0{fill-rule:evenodd;clip-rule:evenodd;fill:#80929F;}
	.st1{fill-rule:evenodd;clip-rule:evenodd;fill:#113E66;}
	.st2{fill-rule:evenodd;clip-rule:evenodd;fill:#07598F;}
</style>
<defs>
</defs>
<path class="st0" d="M820.592,215.056L820.592,215.056h-8.2l0.126,20.02c0.008,1.771,0.587,3.271,1.808,4.56
	c1.178,1.242,2.571,1.875,4.285,1.875H851.2v-4.72l-30.607,0.086V215.056z M762.306,228.75L762.306,228.75h-22.751v-9.152h22.751
	V228.75z M762.306,241.51L762.306,241.51h7.871l0.075-6.288V221.39c0-1.745-0.573-3.218-1.797-4.468
	c-1.184-1.209-2.574-1.812-4.265-1.823l-6.621-0.044l-19.903,0.044c-1.692,0.006-3.078,0.616-4.259,1.823
	c-1.224,1.25-1.795,2.723-1.795,4.468v13.846l-0.075,6.274h8.017v-9.314h22.751V241.51z M689.521,215.099L689.521,215.099h-38.504
	v4.499h14.64v21.912h9.137v-21.912h14.727V215.099z M600.724,241.51L600.724,241.51h8.025v-20.12c0-1.745-0.575-3.218-1.794-4.468
	c-1.181-1.207-2.565-1.823-4.257-1.823h-32.82l-0.031,5.882v4.651l0.037,15.879h7.905v-21.912h23.02L600.724,241.51z
	 M527.514,219.599L527.514,219.599l0.083-4.499h-32.782c-1.692,0-3.076,0.616-4.257,1.823c-1.22,1.25-1.794,2.723-1.794,4.468
	v13.832c0,1.745,0.573,3.215,1.794,4.465c1.181,1.204,2.565,1.823,4.257,1.823h32.782l-0.083-4.537l-9.217,0.04h-21.591v-7.194
	l28.837,0.135v-3.448l-28.837-0.134v-6.773H527.514z M446.892,215.099L446.892,215.099h-8.294v26.411h8.294V215.099z
	 M366.474,215.099L366.474,215.099h-9.181v26.411h32.635c1.909,0,3.559-0.59,4.973-1.88c1.301-1.184,2-2.595,2-4.36v-3.473
	c0-1.768-0.699-3.179-2-4.366c-1.414-1.286-3.064-1.883-4.97-1.877l-14.724,0.039v4.002h12.428v7.644h-21.161V215.099z
	 M265.729,215.099L265.729,215.099v26.411h7.942v-21.912h12.932v21.912h7.944v-21.912h12.932v21.912h7.942v-20.12
	c0-1.742-0.561-3.221-1.777-4.474c-1.17-1.206-2.546-1.817-4.227-1.817H265.729z M215.562,228.75L215.562,228.75h-22.751v-9.152
	h22.751V228.75z M215.562,241.51h7.868l0.075-6.288V221.39c0-1.745-0.573-3.218-1.794-4.468c-1.184-1.209-2.574-1.812-4.265-1.823
	l-6.624-0.044l-19.903,0.044c-1.692,0.006-3.076,0.616-4.259,1.823c-1.218,1.25-1.795,2.723-1.795,4.468v13.846l-0.072,6.274h8.017
	v-9.314h22.751V241.51z"/>
<path class="st1" d="M630.283,156.073V92.526V61.15h-47.985l0.582,93.135l-0.582,33.958h33.28h114.307v-32.568
	C695.092,156.44,665.086,156.073,630.283,156.073"/>
<path class="st1" d="M424.098,156.67L424.098,156.67v31.573H376.89l0.387-93.533c0-9.333,3.29-17.077,9.673-23.629
	c6.385-6.555,13.929-9.731,22.831-9.731h149.562l-0.582,31.574H424.098V156.67z M451.96,110.398L451.96,110.398v27.008l98.288,0.597
	v-27.008L451.96,110.398z"/>
<path class="st1" d="M246.549,110.398v27.008l98.291,0.597v-27.008L246.549,110.398z M218.69,156.67L218.69,156.67h88.421
	l46.242-0.201l0.578,31.774H204.37c-8.9,0-16.446-3.178-22.832-9.73c-6.383-6.555-9.673-14.296-9.673-23.632V94.71
	c0-9.333,3.29-17.077,9.673-23.629c6.386-6.555,13.932-9.731,22.832-9.731h149.561l-0.578,31.574H218.69V156.67z"/>
<path class="st0" d="M123.942,155.038v13.983c-3.648,1.606-7.035,2.87-12.373,0.335c-4.949-2.358-8.929-5.994-15.188-7.744
	c-15.606-4.361-24.055,10.338-34.292,9.203c-10.639-1.181-15.699-14.6-33.659-8.478c-5.896,2.008-8.837,5.427-14.302,7.542
	c-5.695,2.207-9.761-0.216-14.128-1.634V154.26c11.593,4.651,18.496-0.237,28.879-5.847c15.103-8.163,18.643,6.986,33.263,7.452
	c14.908,0.476,21.612-12.854,32.334-9.224C103.537,149.711,111.89,159.706,123.942,155.038"/>
<path class="st2" d="M123.942,128.369v14.391c-12.972,5.23-14.265-3.632-26.769-7.483c-16.43-5.056-24.571,10.392-35.132,9.137
	c-10.461-1.244-16.98-15.361-34.336-8.205c-5.145,2.124-10.267,6.543-15.157,7.762c-5.25,1.312-8.91-0.651-12.549-2.049V127.92
	c11.801,4.614,19.825-0.801,28.993-6.033c13.909-7.934,19.051,6.919,33.044,7.599c15.223,0.742,21.368-13.862,33.296-9.162
	C105.566,124.359,111.279,133.058,123.942,128.369"/>
<path class="st1" d="M123.942,20.553v95.525c-3.051,1.676-5.522,3.154-11.626,0.584c-5.62-2.369-9.133-6.082-15.292-7.766
	c-17.149-4.697-24.383,10.021-34.64,9.056c-10.197-0.958-17.398-14.956-33.583-8.541c-5.191,2.055-10.796,6.443-15.178,7.859
	C8.102,119.05,3.969,117.073,0,115.565V0h123.942V20.553z"/>
<path class="st1" d="M123.942,181.45v60.368H0V180.62c12.261,4.702,17.351,0.104,28.705-5.767
	c14.214-7.356,18.617,6.239,32.465,7.341c15.339,1.224,22.262-12.812,33.531-9.092C103.684,176.066,111.953,186.058,123.942,181.45"
	/>
</svg>