<!-- Generator: Adobe Illustrator 25.2.1, SVG Export Plug-In  -->
<svg version="1.1" xmlns="http://www.w3.org/2000/svg" xmlns:xlink="http://www.w3.org/1999/xlink" x="0px" y="0px"
	 width="695.302px" height="861.445px" viewBox="0 0 695.302 861.445"
	 style="overflow:visible;disable
-background:new 0 0 695.302 861.445;" xml:space="preserve">
<style type="text/css">
	.st0{fill-rule:evenodd;clip-rule:evenodd;fill:#2B2966;}
	.st1{fill-rule:evenodd;clip-rule:evenodd;fill:#15130F;}
	.st2{fill-rule:evenodd;clip-rule:evenodd;fill:#8997A4;}
	.st3{fill-rule:evenodd;clip-rule:evenodd;fill:#252525;}
	.st4{fill-rule:evenodd;clip-rule:evenodd;fill:#FAFAFB;}
	.st5{fill:#2A2422;}
</style>
<defs>
</defs>
<path class="st0" d="M63.19,483.245c8.364,1.825,56.114,38.93,69.192,42.884l0.456-227.346
	c23.267,12.166,208.185,116.334,213.964,116.638c7.908,0.304,201.19-113.293,214.42-116.334l0.152,227.498
	c5.779-2.889,3.041-2.281,8.516-3.041c4.866-8.972,60.068-41.667,62.045-46.23l0.304-295.626c-2.433-7.147,2.585-1.064-3.954-5.475
	c-2.889,4.258-124.85,70.561-140.818,80.293c-18.249,11.101-137.32,77.556-141.426,76.644L63.038,174.085L63.19,483.245z"/>
<path class="st1" d="M81.742,149.601c8.516,0.76,119.071,66.911,130.021,72.994c43.036,24.331,86.224,50.944,129.869,73.907
	c7.604,3.954,8.972,1.977,16.424-2.433c35.585-21.138,223.544-126.523,238.143-137.624c3.65-2.889,1.217-0.913,2.889-2.585
	c-5.322-5.018-15.815-10.797-23.115-15.359c-7.299-4.714-14.751-9.58-22.354-14.295c-9.733-6.235-13.078-11.405-25.092-4.106
	c-32.391,19.769-81.358,43.492-118.919,65.542c-16.12,9.276-32.239,17.944-48.206,26.46c-12.47,6.691-10.949,9.733-23.419,2.433
	l-117.095-67.063c1.977-2.585,0.304-0.912,2.889-3.193L410.063,34.788c0.152-0.608,0.608-0.608,0.912-0.912
	C401.091,25.968,383.451,16.843,373.87,10l-3.65-3.954c-19.161-6.539-4.106-11.405-35.585,5.475L89.498,141.846
	C82.351,145.343,83.567,142.91,81.742,149.601L81.742,149.601z"/>
<path class="st2" d="M525.637,357.634l-62.349,34.064l-0.76,92.459c6.539,5.17,25.396,16.424,32.999,20.225l37.561,22.05
	c1.369-16.728,2.129-167.278-0.304-171.08L525.637,357.634z"/>
<path class="st2" d="M160.819,527.041c6.235-1.977,69.801-39.082,70.865-44.557l-0.304-90.178
	c-13.991-7.147-60.828-33.456-71.017-36.953L160.819,527.041z"/>
<path class="st2" d="M282.78,145.647c7.756,6.843,39.234,23.267,51.704,30.718c18.705,11.253,11.557,10.645,54.289-13.382
	c12.622-6.995,24.94-12.622,36.953-20.377l0.608-79.989L282.78,145.647z"/>
<path class="st3" d="M169.943,779.023c8.06,6.387,10.645,4.258,22.354,4.258c22.354,0,25.548,2.129,25.396-15.055l-0.304-45.469
	c-1.064-19.313-6.691-34.672-9.58-52.617c5.17,4.41,7.147,16.424,9.733,23.419c4.562,12.622,14.751,32.239,21.442,44.557
	c6.387,11.709,8.364,9.885,23.267,10.037c19.465,0,15.207,1.521,32.391-32.847l14.903-34.368c4.106-10.949,2.129-8.82,6.083-10.493
	c-3.498,16.88-8.668,31.783-10.341,51.096c-1.369,13.534-2.281,51.248,1.673,60.676c8.668,1.825,36.953,1.977,45.013-0.152
	c4.562-10.341,2.281-110.86,2.281-136.103c0-13.991,2.585-34.368-4.106-43.036c-9.58,1.217-36.193-2.281-42.428,1.977
	c-3.193,2.129-26.917,50.64-30.87,58.243c-4.41,8.364-10.037,22.202-15.359,29.046c-3.954-7.604-41.972-84.703-46.077-87.289
	c-5.018-3.193-36.801-2.889-42.276-0.152C165.077,615.09,173.897,752.714,169.943,779.023L169.943,779.023z"/>
<path class="st3" d="M431.353,684.434v-36.953c20.53-0.76,43.34-4.258,44.253,17.64
	C476.518,688.236,450.362,685.651,431.353,684.434L431.353,684.434z M381.93,606.118c-1.673,14.903-1.825,166.061,0.456,173.817
	c3.954,5.931,42.124,3.346,46.534,2.281c4.714-13.839,2.433-35.889,2.281-52.617c27.829-1.521,67.519,6.083,87.593-27.677
	c2.433-3.954,3.498-7.604,6.235-10.493c0-14.751,14.751-62.805-31.935-82.727c-19.009-8.06-60.372-5.779-85.312-5.779
	c-4.714,0-10.341-0.304-15.207,0C383.755,603.533,386.492,604.597,381.93,606.118L381.93,606.118z"/>
<path class="st3" d="M20.762,616.459C11.79,633.947,0.08,625.887,0.08,685.803c0,29.198-1.977,56.114,13.686,75.579
	c12.926,15.815,33.912,25.548,63.261,25.7c17.184,0.152,38.018-3.498,51.856-13.839l13.078-11.101l2.889-5.627
	c1.673-2.585,2.281-3.498,3.65-6.083c11.101-21.746-0.608-20.53-23.571-28.893c-19.465-7.147-15.359-3.802-23.267,9.428
	c-9.58,16.119-47.142,17.488-51.096-7.604c-1.825-10.797-0.76-27.525-0.76-38.93c0-12.622-0.912-26.917,6.995-33.912
	c6.539-6.083,21.898-8.212,32.695-4.562c14.599,4.714,10.949,13.078,18.705,21.898c10.949,1.369,36.193-8.972,44.405-14.447
	c1.825-23.419-24.179-45.621-50.792-51.552c-20.073-4.41-45.925-2.889-64.934,5.475C30.647,610.072,25.628,615.851,20.762,616.459
	L20.762,616.459z"/>
<path class="st3" d="M553.922,760.166c5.779,3.041,8.972,8.82,14.903,13.078c26.156,19.009,80.445,19.769,108.427-4.714
	c7.604-6.539,21.138-23.419,16.12-38.018c-5.474-0.304-21.746-7.451-29.198-10.189c-18.401-6.539-13.534,1.977-21.138,12.47
	c-5.779,8.06-16.728,10.797-30.414,8.972c-26.156-3.345-20.378-32.391-20.53-58.699c0-12.47-0.152-25.396,6.995-32.543
	c6.691-6.539,22.202-8.06,32.695-4.714c26.612,8.364-0.304,32.087,42.428,16.728c8.668-3.041,14.599-3.498,20.377-9.733
	c4.258-8.212-10.493-39.691-44.861-49.423c-26.004-7.451-58.547-4.258-78.317,8.364c-20.378,13.078-29.046,32.695-29.046,65.847
	c0,14.903-0.76,31.935,0.304,46.534C543.886,742.982,552.402,751.194,553.922,760.166L553.922,760.166z"/>
<path class="st4" d="M431.353,684.434c19.009,1.217,45.165,3.802,44.253-19.313c-0.912-21.898-23.723-18.4-44.253-17.64V684.434z"/>
<polygon class="st5" points="60.757,826.773 66.079,826.773 86.304,853.385 85.696,853.994 85.696,826.773 91.475,826.773 
	91.475,861.141 86.152,861.141 65.775,834.985 66.535,834.376 66.535,861.141 60.757,861.141 "/>
<path class="st5" d="M138.921,826.773h3.954h1.977h7.299c3.346,0,6.235,0.456,8.516,1.521c2.433,0.912,4.258,2.281,5.475,4.106
	c1.217,1.825,1.825,4.106,1.825,6.691v9.733c0,2.585-0.608,4.866-1.825,6.691c-1.217,1.825-3.041,3.193-5.475,4.106
	c-2.433,1.064-5.17,1.521-8.516,1.521h-7.299h-1.977h-3.954V826.773z M144.852,831.335v25.244h7.451c3.041,0,5.475-0.76,7.147-1.977
	c1.673-1.369,2.585-3.193,2.585-5.627v-10.037c0-2.433-0.912-4.258-2.585-5.627c-1.673-1.217-4.106-1.977-7.147-1.977H144.852z"/>
<path class="st5" d="M230.011,861.445c-3.041,0-5.627-0.456-7.908-1.521c-2.129-0.912-3.802-2.433-4.866-4.258
	c-1.217-1.977-1.825-4.258-1.825-6.995v-21.898h5.931v22.05c0,2.585,0.76,4.41,2.281,5.779c1.521,1.369,3.65,2.129,6.387,2.129
	c2.889,0,5.018-0.76,6.539-2.129c1.521-1.369,2.281-3.193,2.281-5.779v-22.05h5.931v21.898c0,2.737-0.608,5.018-1.825,6.995
	c-1.064,1.825-2.737,3.345-5.018,4.258C235.79,860.989,233.205,861.445,230.011,861.445L230.011,861.445z"/>
<path class="st5" d="M307.263,861.445c-1.977,0-3.954-0.152-5.627-0.456c-1.825-0.304-3.498-0.76-5.018-1.369
	c-1.673-0.608-3.041-1.521-4.41-2.433l0,0l3.65-3.65l0,0c1.521,1.065,3.346,1.977,5.17,2.585c1.977,0.608,3.954,0.76,6.235,0.76
	c3.041,0,5.322-0.456,6.995-1.369c1.673-0.912,2.433-2.129,2.433-3.802v-0.152c0-1.065-0.304-2.129-1.064-2.737
	c-0.76-0.76-1.673-1.217-2.889-1.521c-1.217-0.456-2.737-0.76-4.562-1.065c-0.152,0-0.152,0-0.304,0h-0.152h-0.456
	c-2.737-0.456-5.018-0.912-6.691-1.369c-1.825-0.456-3.346-1.369-4.562-2.737c-1.217-1.369-1.825-3.193-1.825-5.627l0,0
	c0-2.129,0.608-3.954,1.673-5.475c1.217-1.521,2.889-2.585,5.018-3.346c2.281-0.912,4.866-1.216,8.06-1.216
	c1.521,0,2.889,0.152,4.41,0.456c1.369,0.152,2.889,0.608,4.258,1.065c1.369,0.608,2.737,1.217,4.106,2.129l0,0l-3.346,3.802l0,0
	c-1.521-1.065-3.193-1.673-4.714-2.281c-1.521-0.456-3.194-0.608-4.714-0.608c-2.889,0-5.018,0.456-6.691,1.369
	c-1.521,0.912-2.281,2.281-2.281,3.954l0,0c0,1.217,0.456,2.129,1.217,2.889c0.76,0.608,1.825,1.064,3.041,1.369
	c1.217,0.304,2.889,0.76,5.018,1.064c0.152,0,0.152,0,0.152,0c0.152,0,0.152,0,0.304,0c0.152,0.152,0.152,0.152,0.304,0.152
	c0.152,0,0.152,0,0.304,0c2.585,0.456,4.562,0.912,6.235,1.521c1.825,0.608,3.193,1.521,4.258,2.889
	c1.217,1.216,1.673,3.041,1.673,5.323l0,0c0,2.129-0.456,3.802-1.673,5.322c-1.217,1.521-3.041,2.585-5.322,3.498
	C313.194,861.141,310.457,861.445,307.263,861.445L307.263,861.445z"/>
<polygon class="st5" points="370.069,826.773 399.418,826.773 399.418,831.335 387.709,831.335 387.709,861.141 381.778,861.141 
	381.778,831.335 370.069,831.335 "/>
<path class="st5" d="M467.698,846.086l9.58,15.055h-6.995l-8.82-14.599h-8.668v14.599h-5.931v-34.368h2.585h3.346h10.645
	c2.433,0,4.41,0.456,6.235,1.217c1.825,0.912,3.346,1.977,4.258,3.498c1.064,1.521,1.521,3.193,1.521,5.17l0,0
	c0,1.977-0.456,3.802-1.521,5.17c-1.064,1.521-2.433,2.737-4.258,3.498C469.067,845.63,468.306,845.934,467.698,846.086
	L467.698,846.086z M452.795,841.98h10.797c1.217,0,2.129-0.152,3.041-0.608c0.76-0.456,1.521-1.065,1.977-1.825
	c0.456-0.912,0.608-1.825,0.608-2.889l0,0c0-1.065-0.152-1.977-0.608-2.737c-0.456-0.76-1.217-1.521-1.977-1.825
	c-0.912-0.456-1.825-0.76-3.041-0.76h-10.797V841.98z"/>
<path class="st5" d="M589.355,848.975h13.078l-6.539-15.511L589.355,848.975z M604.258,853.537H587.53l-3.193,7.604h-6.235
	l15.359-34.368h4.866l15.359,34.368h-6.235L604.258,853.537z"/>
<rect x="524.725" y="826.773" class="st5" width="5.779" height="34.368"/>
<polygon class="st5" points="667.063,856.579 687.897,856.579 687.897,861.141 667.063,861.141 664.174,861.141 661.132,861.141 
	661.132,826.773 667.063,826.773 "/>
<rect x="7.38" y="826.773" class="st5" width="5.779" height="34.368"/>
</svg>