<!-- Generator: Adobe Illustrator 25.2.1, SVG Export Plug-In  -->
<svg version="1.1" xmlns="http://www.w3.org/2000/svg" xmlns:xlink="http://www.w3.org/1999/xlink" x="0px" y="0px"
	 width="73.513px" height="20.87px" viewBox="0 0 73.513 20.87" style="overflow:visible;DISABLE-background:new 0 0 73.513 20.87;"
	 xml:space="preserve">
<style type="text/css">
	.st0{fill-rule:evenodd;clip-rule:evenodd;fill:#FFFFFF;}
	.st1{fill:#FFFFFF;}
</style>
<defs>
</defs>
<g>
	<path class="st0" d="M70.82,18.56L70.82,18.56h-0.708l0.011,1.728c0.001,0.153,0.051,0.282,0.156,0.394
		c0.102,0.107,0.222,0.162,0.37,0.162h2.812v-0.407l-2.642,0.007V18.56z M65.79,19.742L65.79,19.742h-1.964v-0.79h1.964V19.742z
		 M65.79,20.843L65.79,20.843h0.679l0.006-0.543v-1.194c0-0.151-0.049-0.278-0.155-0.386c-0.102-0.104-0.222-0.156-0.368-0.157
		l-0.571-0.004l-1.718,0.004c-0.146,0.001-0.266,0.053-0.368,0.157c-0.106,0.108-0.155,0.235-0.155,0.386v1.195l-0.006,0.541h0.692
		v-0.804h1.964V20.843z M59.508,18.564L59.508,18.564h-3.323v0.388h1.263v1.891h0.789v-1.891h1.271V18.564z M51.845,20.843
		L51.845,20.843h0.693v-1.736c0-0.151-0.05-0.278-0.155-0.386c-0.102-0.104-0.221-0.157-0.367-0.157h-2.832l-0.003,0.508v0.401
		l0.003,1.37h0.682v-1.891h1.987L51.845,20.843z M45.526,18.952L45.526,18.952l0.007-0.388h-2.829c-0.146,0-0.265,0.053-0.367,0.157
		c-0.105,0.108-0.155,0.235-0.155,0.386v1.194c0,0.151,0.049,0.277,0.155,0.385c0.102,0.104,0.221,0.157,0.367,0.157h2.829
		l-0.007-0.392l-0.795,0.003h-1.863v-0.621l2.489,0.012v-0.298l-2.489-0.012v-0.585H45.526z M38.568,18.564L38.568,18.564h-0.716
		v2.279h0.716V18.564z M31.628,18.564L31.628,18.564h-0.792v2.279h2.816c0.165,0,0.307-0.051,0.429-0.162
		c0.112-0.102,0.173-0.224,0.173-0.376v-0.3c0-0.153-0.06-0.274-0.173-0.377c-0.122-0.111-0.264-0.162-0.429-0.162l-1.271,0.003
		v0.345h1.073v0.66h-1.826V18.564z M22.933,18.564L22.933,18.564v2.279h0.685v-1.891h1.116v1.891h0.686v-1.891h1.116v1.891h0.685
		v-1.736c0-0.15-0.048-0.278-0.153-0.386c-0.101-0.104-0.22-0.157-0.365-0.157H22.933z M18.604,19.742L18.604,19.742H16.64v-0.79
		h1.963V19.742z M18.604,20.843h0.679l0.006-0.543v-1.194c0-0.151-0.049-0.278-0.155-0.386c-0.102-0.104-0.222-0.156-0.368-0.157
		l-0.572-0.004l-1.718,0.004c-0.146,0.001-0.265,0.053-0.368,0.157c-0.105,0.108-0.155,0.235-0.155,0.386v1.195l-0.006,0.541h0.692
		v-0.804h1.963V20.843z"/>
	<path class="st0" d="M54.396,13.47V7.985V5.277h-4.141l0.05,8.038l-0.05,2.931h2.872h9.865v-2.811
		C59.989,13.501,57.399,13.47,54.396,13.47"/>
	<path class="st0" d="M36.601,13.521L36.601,13.521v2.725h-4.074l0.033-8.072c0-0.805,0.284-1.474,0.835-2.039
		c0.551-0.566,1.202-0.84,1.97-0.84h12.908l-0.05,2.725H36.601V13.521z M39.006,9.528L39.006,9.528v2.331l8.483,0.051V9.579
		L39.006,9.528z"/>
	<path class="st0" d="M21.278,9.528v2.331l8.483,0.051V9.579L21.278,9.528z M18.874,13.521L18.874,13.521h7.631l3.991-0.017
		l0.05,2.742H17.638c-0.768,0-1.419-0.274-1.97-0.84c-0.551-0.566-0.835-1.234-0.835-2.04V8.174c0-0.805,0.284-1.474,0.835-2.039
		c0.551-0.566,1.202-0.84,1.97-0.84h12.908l-0.05,2.725H18.874V13.521z"/>
	<path class="st1" d="M64.135,14.677c-0.077,0-0.142-0.015-0.197-0.043c-0.054-0.029-0.096-0.071-0.124-0.127
		c-0.029-0.056-0.043-0.123-0.043-0.202v-0.094c0-0.082,0.014-0.152,0.041-0.211c0.027-0.058,0.067-0.102,0.119-0.133
		c0.052-0.03,0.115-0.046,0.189-0.046c0.069,0,0.129,0.017,0.178,0.052c0.049,0.035,0.086,0.085,0.112,0.15
		c0.026,0.066,0.039,0.145,0.039,0.236v0.054h-0.56v-0.131h0.405c-0.005-0.068-0.023-0.121-0.052-0.158
		c-0.03-0.038-0.071-0.057-0.121-0.057c-0.062,0-0.11,0.02-0.144,0.061c-0.034,0.04-0.051,0.098-0.051,0.172v0.105
		c0,0.069,0.018,0.122,0.054,0.158c0.036,0.037,0.088,0.055,0.154,0.055c0.033,0,0.066-0.007,0.099-0.02
		c0.032-0.013,0.062-0.032,0.087-0.056l0.107,0.107c-0.041,0.039-0.087,0.07-0.138,0.091C64.238,14.665,64.187,14.677,64.135,14.677
		"/>
	<path class="st1" d="M65.372,14.677c-0.049,0-0.095-0.005-0.138-0.015c-0.043-0.01-0.083-0.024-0.121-0.043
		c-0.037-0.019-0.072-0.043-0.103-0.072l0.097-0.119c0.045,0.034,0.089,0.06,0.134,0.077c0.045,0.017,0.088,0.026,0.131,0.026
		c0.064,0,0.113-0.01,0.145-0.03c0.032-0.02,0.048-0.05,0.048-0.09c0-0.027-0.009-0.047-0.026-0.06
		c-0.017-0.013-0.039-0.023-0.066-0.027c-0.026-0.004-0.063-0.009-0.11-0.012c-0.004,0-0.009,0-0.014,0
		c-0.005,0-0.009-0.001-0.014-0.001c-0.002,0-0.004,0-0.006,0c-0.002,0-0.004,0-0.007,0c-0.054-0.004-0.099-0.012-0.137-0.024
		c-0.037-0.011-0.068-0.033-0.093-0.064c-0.025-0.031-0.037-0.076-0.037-0.135c0-0.059,0.012-0.107,0.036-0.146
		c0.024-0.039,0.059-0.068,0.107-0.088c0.047-0.02,0.107-0.029,0.178-0.029c0.043,0,0.085,0.004,0.124,0.012
		c0.039,0.008,0.077,0.02,0.112,0.036c0.036,0.016,0.07,0.036,0.103,0.06l-0.099,0.119c-0.042-0.027-0.082-0.047-0.122-0.06
		c-0.041-0.013-0.08-0.02-0.118-0.02c-0.055,0-0.097,0.01-0.125,0.028c-0.028,0.019-0.042,0.047-0.042,0.085
		c0,0.023,0.008,0.039,0.024,0.05c0.016,0.011,0.035,0.019,0.059,0.023c0.024,0.003,0.058,0.007,0.102,0.009
		c0.003,0.001,0.007,0.001,0.01,0.001c0.003,0,0.007,0,0.011,0.001c0.002,0,0.003,0,0.005,0c0.001,0,0.003,0,0.005,0.001
		c0.058,0.004,0.107,0.012,0.148,0.023c0.041,0.012,0.075,0.035,0.103,0.07c0.028,0.035,0.042,0.085,0.042,0.15
		c0,0.06-0.013,0.109-0.038,0.148c-0.026,0.039-0.064,0.069-0.116,0.088C65.515,14.667,65.45,14.677,65.372,14.677"/>
	<path class="st1" d="M66.627,14.677c-0.049,0-0.095-0.005-0.138-0.015c-0.043-0.01-0.083-0.024-0.12-0.043
		c-0.037-0.019-0.072-0.043-0.103-0.072l0.096-0.119c0.045,0.034,0.089,0.06,0.134,0.077c0.045,0.017,0.088,0.026,0.131,0.026
		c0.064,0,0.113-0.01,0.145-0.03c0.032-0.02,0.048-0.05,0.048-0.09c0-0.027-0.009-0.047-0.027-0.06
		c-0.017-0.013-0.039-0.023-0.066-0.027c-0.026-0.004-0.063-0.009-0.11-0.012c-0.004,0-0.009,0-0.014,0
		c-0.005,0-0.009-0.001-0.014-0.001c-0.002,0-0.004,0-0.006,0c-0.002,0-0.004,0-0.007,0c-0.054-0.004-0.099-0.012-0.137-0.024
		c-0.037-0.011-0.068-0.033-0.093-0.064c-0.025-0.031-0.037-0.076-0.037-0.135c0-0.059,0.012-0.107,0.036-0.146
		c0.024-0.039,0.059-0.068,0.107-0.088c0.047-0.02,0.107-0.029,0.178-0.029c0.043,0,0.085,0.004,0.124,0.012
		c0.039,0.008,0.077,0.02,0.112,0.036c0.036,0.016,0.07,0.036,0.103,0.06l-0.099,0.119c-0.042-0.027-0.082-0.047-0.122-0.06
		c-0.041-0.013-0.08-0.02-0.118-0.02c-0.055,0-0.097,0.01-0.125,0.028c-0.028,0.019-0.042,0.047-0.042,0.085
		c0,0.023,0.008,0.039,0.024,0.05c0.016,0.011,0.035,0.019,0.059,0.023c0.024,0.003,0.058,0.007,0.102,0.009
		c0.003,0.001,0.007,0.001,0.01,0.001c0.003,0,0.007,0,0.011,0.001c0.002,0,0.003,0,0.005,0c0.001,0,0.003,0,0.005,0.001
		c0.058,0.004,0.107,0.012,0.148,0.023c0.041,0.012,0.075,0.035,0.103,0.07c0.028,0.035,0.042,0.085,0.042,0.15
		c0,0.06-0.013,0.109-0.038,0.148c-0.026,0.039-0.064,0.069-0.116,0.088C66.769,14.667,66.704,14.677,66.627,14.677"/>
	<path class="st1" d="M67.927,14.677c-0.077,0-0.143-0.015-0.197-0.043c-0.054-0.029-0.096-0.071-0.124-0.127
		c-0.029-0.056-0.043-0.123-0.043-0.202v-0.094c0-0.082,0.014-0.152,0.041-0.211c0.027-0.058,0.067-0.102,0.119-0.133
		c0.052-0.03,0.115-0.046,0.189-0.046c0.069,0,0.129,0.017,0.178,0.052c0.049,0.035,0.086,0.085,0.112,0.15
		c0.026,0.066,0.039,0.145,0.039,0.236v0.054h-0.56v-0.131h0.405c-0.005-0.068-0.023-0.121-0.052-0.158
		c-0.03-0.038-0.071-0.057-0.121-0.057c-0.062,0-0.11,0.02-0.144,0.061c-0.034,0.04-0.051,0.098-0.051,0.172v0.105
		c0,0.069,0.018,0.122,0.054,0.158c0.036,0.037,0.088,0.055,0.154,0.055c0.033,0,0.066-0.007,0.098-0.02
		c0.032-0.013,0.062-0.032,0.087-0.056l0.107,0.107c-0.041,0.039-0.087,0.07-0.138,0.091C68.03,14.665,67.979,14.677,67.927,14.677"
		/>
	<path class="st1" d="M69.374,14.161c0-0.059-0.015-0.104-0.045-0.136c-0.03-0.032-0.073-0.048-0.128-0.048
		c-0.054,0-0.095,0.014-0.124,0.043c-0.029,0.028-0.044,0.068-0.044,0.119l-0.017-0.16c0.026-0.05,0.059-0.089,0.1-0.116
		c0.041-0.027,0.087-0.041,0.137-0.041c0.09,0,0.16,0.029,0.209,0.088c0.049,0.059,0.074,0.142,0.074,0.25v0.504h-0.163V14.161z
		 M68.871,13.834h0.163v0.83h-0.163V13.834z"/>
	<path class="st1" d="M70.127,13.834h0.374v0.147h-0.374V13.834z M70.407,14.669c-0.067,0-0.116-0.019-0.148-0.056
		c-0.031-0.037-0.047-0.092-0.047-0.164v-0.856h0.163v0.857c0,0.02,0.004,0.036,0.012,0.047c0.008,0.011,0.02,0.017,0.035,0.017
		h0.078v0.155H70.407z"/>
	<path class="st1" d="M71.13,13.834h0.163v0.83H71.13V13.834z M71.13,13.502h0.163v0.163H71.13V13.502z"/>
	<path class="st1" d="M72.212,14.677c-0.102,0-0.179-0.022-0.229-0.064c-0.051-0.042-0.076-0.107-0.076-0.193
		c0-0.082,0.023-0.144,0.07-0.185c0.046-0.041,0.117-0.062,0.21-0.062h0.236l0.011,0.131h-0.246c-0.043,0-0.075,0.009-0.096,0.028
		c-0.021,0.019-0.031,0.048-0.031,0.087c0,0.042,0.014,0.073,0.042,0.094c0.028,0.02,0.07,0.03,0.127,0.03
		c0.062,0,0.109-0.007,0.14-0.02c0.03-0.013,0.046-0.034,0.046-0.062l0.017,0.117c-0.015,0.023-0.032,0.041-0.053,0.055
		c-0.021,0.014-0.045,0.025-0.073,0.032C72.278,14.673,72.246,14.677,72.212,14.677 M72.415,14.138c0-0.054-0.015-0.096-0.044-0.127
		c-0.029-0.03-0.07-0.045-0.124-0.045c-0.033,0-0.066,0.005-0.097,0.015c-0.032,0.01-0.06,0.024-0.084,0.042l-0.119-0.082
		c0.031-0.038,0.073-0.067,0.124-0.088c0.052-0.021,0.109-0.032,0.172-0.032c0.069,0,0.127,0.012,0.177,0.036
		c0.049,0.025,0.087,0.06,0.112,0.106c0.026,0.046,0.039,0.102,0.039,0.167v0.533h-0.155V14.138z"/>
	<path class="st1" d="M73.386,14.45c0,0.02,0.005,0.036,0.013,0.047c0.009,0.011,0.021,0.017,0.037,0.017h0.077v0.155h-0.096
		c-0.062,0-0.11-0.02-0.143-0.058c-0.034-0.039-0.051-0.093-0.051-0.162v-0.947h0.163V14.45z"/>
	<path class="st1" d="M63.731,15.403h0.415v0.139h-0.415V15.403z M63.819,15.291c0-0.074,0.017-0.129,0.051-0.165
		c0.034-0.037,0.086-0.055,0.156-0.055h0.12v0.155h-0.117c-0.015,0-0.027,0.006-0.035,0.018c-0.008,0.012-0.012,0.027-0.012,0.045
		v0.944h-0.163V15.291z"/>
	<path class="st1" d="M65.014,16.09c0.057,0,0.101-0.018,0.132-0.054c0.031-0.036,0.047-0.086,0.047-0.15v-0.138
		c0-0.065-0.016-0.114-0.047-0.149c-0.031-0.035-0.075-0.053-0.132-0.053c-0.057,0-0.101,0.018-0.132,0.053
		c-0.031,0.035-0.047,0.085-0.047,0.149v0.138c0,0.065,0.016,0.114,0.047,0.15C64.913,16.072,64.957,16.09,65.014,16.09
		 M65.014,16.246c-0.072,0-0.133-0.014-0.185-0.042c-0.051-0.028-0.09-0.07-0.117-0.124c-0.027-0.054-0.041-0.12-0.041-0.195v-0.135
		c0-0.075,0.014-0.14,0.041-0.193c0.027-0.053,0.066-0.095,0.117-0.122c0.051-0.028,0.113-0.042,0.185-0.042
		c0.072,0,0.134,0.014,0.185,0.042c0.051,0.028,0.09,0.069,0.117,0.122c0.027,0.053,0.04,0.118,0.04,0.193v0.138
		c0,0.076-0.014,0.14-0.04,0.194c-0.027,0.053-0.066,0.095-0.117,0.123C65.147,16.231,65.085,16.246,65.014,16.246z"/>
	<path class="st1" d="M66.45,15.6c-0.015-0.018-0.033-0.031-0.055-0.04c-0.022-0.009-0.047-0.014-0.076-0.014
		c-0.051,0-0.092,0.015-0.12,0.043c-0.028,0.029-0.043,0.068-0.043,0.119l-0.016-0.16c0.026-0.049,0.059-0.088,0.099-0.116
		c0.041-0.027,0.085-0.041,0.134-0.041c0.038,0,0.072,0.005,0.103,0.016c0.03,0.011,0.057,0.027,0.08,0.048L66.45,15.6z
		 M65.993,15.403h0.163v0.83h-0.163V15.403z"/>
	<path class="st1" d="M67.7,16.019c0,0.02,0.005,0.036,0.013,0.047c0.009,0.011,0.021,0.017,0.037,0.017h0.077v0.155h-0.096
		c-0.062,0-0.11-0.02-0.143-0.058c-0.034-0.039-0.051-0.093-0.051-0.162v-0.947H67.7V16.019z"/>
	<path class="st1" d="M68.417,15.403h0.163v0.83h-0.163V15.403z M68.417,15.071h0.163v0.163h-0.163V15.071z"/>
	<path class="st1" d="M69.169,15.403h0.415v0.139h-0.415V15.403z M69.257,15.291c0-0.074,0.017-0.129,0.051-0.165
		c0.034-0.037,0.086-0.055,0.156-0.055h0.12v0.155h-0.117c-0.015,0-0.027,0.006-0.035,0.018c-0.008,0.012-0.012,0.027-0.012,0.045
		v0.944h-0.163V15.291z"/>
	<path class="st1" d="M70.473,16.246c-0.077,0-0.142-0.015-0.197-0.043c-0.054-0.029-0.096-0.071-0.124-0.127
		c-0.029-0.056-0.043-0.123-0.043-0.202V15.78c0-0.082,0.014-0.152,0.041-0.21c0.027-0.058,0.067-0.102,0.119-0.133
		c0.052-0.03,0.115-0.045,0.189-0.045c0.069,0,0.129,0.017,0.178,0.052c0.049,0.035,0.086,0.085,0.112,0.15
		c0.026,0.066,0.039,0.144,0.039,0.236v0.054h-0.56v-0.131h0.405c-0.005-0.068-0.023-0.12-0.052-0.158
		c-0.03-0.038-0.07-0.057-0.121-0.057c-0.062,0-0.11,0.02-0.144,0.061c-0.034,0.04-0.051,0.098-0.051,0.172v0.105
		c0,0.069,0.018,0.122,0.054,0.158c0.036,0.037,0.088,0.055,0.154,0.055c0.033,0,0.066-0.007,0.098-0.02
		c0.032-0.013,0.062-0.032,0.087-0.056l0.107,0.107c-0.041,0.039-0.087,0.07-0.138,0.091C70.576,16.234,70.524,16.246,70.473,16.246
		"/>
	<path class="st0" d="M10.697,13.38v1.207c-0.315,0.139-0.607,0.248-1.068,0.029c-0.427-0.203-0.771-0.517-1.311-0.668
		c-1.347-0.376-2.076,0.892-2.96,0.794c-0.918-0.102-1.355-1.26-2.905-0.732c-0.509,0.173-0.763,0.468-1.234,0.651
		C0.728,14.852,0.377,14.642,0,14.52v-1.207c1.001,0.401,1.596-0.02,2.492-0.505c1.303-0.704,1.609,0.603,2.871,0.643
		c1.287,0.041,1.865-1.109,2.79-0.796C8.936,12.921,9.657,13.783,10.697,13.38"/>
	<path class="st0" d="M10.697,11.079v1.242c-1.12,0.451-1.231-0.313-2.31-0.646c-1.418-0.436-2.121,0.897-3.032,0.789
		c-0.903-0.107-1.465-1.326-2.963-0.708c-0.444,0.183-0.886,0.565-1.308,0.67C0.63,12.538,0.314,12.369,0,12.248V11.04
		c1.019,0.398,1.711-0.069,2.502-0.521c1.2-0.685,1.644,0.597,2.852,0.656c1.314,0.064,1.844-1.196,2.874-0.791
		C9.111,10.733,9.604,11.483,10.697,11.079"/>
	<path class="st0" d="M10.697,1.774v8.244c-0.263,0.145-0.477,0.272-1.003,0.05c-0.485-0.204-0.788-0.525-1.32-0.67
		c-1.48-0.405-2.104,0.865-2.99,0.782c-0.88-0.083-1.502-1.291-2.898-0.737c-0.448,0.177-0.932,0.556-1.31,0.678
		C0.699,10.274,0.343,10.104,0,9.974V0h10.697V1.774z"/>
	<path class="st0" d="M10.697,15.66v5.21H0v-5.282c1.058,0.406,1.497,0.009,2.477-0.498c1.227-0.635,1.607,0.538,2.802,0.634
		c1.324,0.106,1.921-1.106,2.894-0.785C8.948,15.195,9.662,16.057,10.697,15.66"/>
</g>
</svg>