<!-- Generator: Adobe Illustrator 25.2.1, SVG Export Plug-In  -->
<svg version="1.1" xmlns="http://www.w3.org/2000/svg" xmlns:xlink="http://www.w3.org/1999/xlink" x="0px" y="0px"
	 width="84.582px" height="84.527px" viewBox="0 0 84.582 84.527"
	 style="overflow:visible;DISABLE-background:new 0 0 84.582 84.527;" xml:space="preserve">
<style type="text/css">
	.st0{fill:#303030;}
</style>
<defs>
</defs>
<path class="st0" d="M42.333,84.527C18.963,84.536,0.026,65.669,0,42.359C-0.025,19.545,18.083,0.033,42.158,0
	c23.994-0.032,42.282,18.977,42.424,42.248C84.724,65.515,65.625,84.517,42.333,84.527z M42.291,80.622
	c21.297-0.03,38.424-17.151,38.411-38.398C80.69,21.057,63.38,3.797,42.196,3.828C21.062,3.859,3.905,21.077,3.911,42.25
	C3.917,63.595,20.977,80.652,42.291,80.622z"/>
<path class="st0" d="M45.687,37.628c2.896-3.454,6.342-4.213,10.25-3.372c3.903,0.84,6.081,3.73,6.469,8.453
	c0.434,5.298,0.131,10.604,0.227,15.906c0.019,1.056-0.438,1.475-1.485,1.451c-1.783-0.042-3.568-0.048-5.351,0.003
	c-1.101,0.031-1.422-0.471-1.414-1.493c0.029-3.796,0.013-7.592,0.003-11.388c-0.002-0.777,0.006-1.56-0.087-2.329
	c-0.287-2.387-1.554-3.65-3.642-3.7c-2.381-0.058-3.947,1.151-4.362,3.486c-0.231,1.302-0.334,2.626-0.324,3.959
	c0.024,3.293-0.032,6.587,0.028,9.879c0.022,1.205-0.423,1.632-1.599,1.59c-1.736-0.062-3.476-0.038-5.213-0.011
	c-0.935,0.015-1.303-0.388-1.301-1.317c0.016-7.592,0.021-15.185-0.005-22.777c-0.004-1.085,0.468-1.468,1.485-1.451
	c1.509,0.026,3.022,0.07,4.527-0.016c1.354-0.078,1.998,0.378,1.8,1.791C45.65,36.603,45.687,36.925,45.687,37.628z"/>
<path class="st0" d="M25.232,47.132c-0.001-3.659,0.044-7.319-0.025-10.977c-0.024-1.286,0.462-1.7,1.683-1.652
	c1.644,0.065,3.293,0.035,4.939,0.011c0.993-0.014,1.511,0.31,1.507,1.422c-0.028,7.592-0.025,15.185-0.001,22.777
	c0.003,1.033-0.448,1.367-1.409,1.35c-1.783-0.032-3.568-0.034-5.351-0.001c-1.007,0.019-1.363-0.418-1.355-1.406
	C25.252,54.816,25.233,50.974,25.232,47.132z"/>
<path class="st0" d="M33.894,26.737c0.016,2.673-2.033,4.777-4.638,4.764c-2.5-0.013-4.658-2.141-4.696-4.633
	c-0.039-2.545,2.141-4.744,4.707-4.749C31.824,22.115,33.879,24.165,33.894,26.737z"/>
</svg>