<!-- Generator: Adobe Illustrator 25.2.1, SVG Export Plug-In  -->
<svg version="1.1" xmlns="http://www.w3.org/2000/svg" xmlns:xlink="http://www.w3.org/1999/xlink" x="0px" y="0px"
	 width="84.156px" height="84.218px" viewBox="0 0 84.156 84.218"
	 style="overflow:visible;DISABLE-background:new 0 0 84.156 84.218;" xml:space="preserve">
<style type="text/css">
	.st0{fill:#303030;}
</style>
<defs>
</defs>
<path class="st0" d="M84.152,42.137c0.277,21.752-17.26,42.047-42.031,42.081C17.986,84.251-0.043,64.664,0,42.025
	C0.044,18.839,18.936-0.037,42.166,0C65.884,0.038,84.462,19.605,84.152,42.137z M3.917,42.075
	c0.01,21.177,17.064,38.388,38.151,38.295c21.257-0.094,38.321-16.871,38.273-38.347C80.293,19.99,62.36,3.844,42.158,3.894
	C20.936,3.947,3.908,20.911,3.917,42.075z"/>
<path class="st0" d="M42.113,19.437c12.62,0.008,22.792,10.172,22.772,22.753C64.864,54.7,54.562,64.89,41.967,64.859
	c-12.34-0.03-22.774-10.339-22.648-22.676C19.461,28.275,30.829,19.17,42.113,19.437z M42.363,60.968
	c1.847,0.104,3.855-0.285,5.829-0.919c0.721-0.231,1.076-0.635,0.918-1.417c-0.835-4.128-1.948-8.176-3.42-12.125
	c-0.243-0.65-0.584-0.834-1.249-0.569c-5.35,2.13-9.881,5.301-13.124,10.159c-0.573,0.858-0.404,1.359,0.431,1.881
	C34.929,59.964,38.347,61.084,42.363,60.968z M41.912,39.36c-0.222,0.053-0.4,0.092-0.576,0.138
	c-5.549,1.428-11.18,2.287-16.918,2.303c-1.101,0.003-1.312,0.526-1.236,1.45c0.3,3.632,1.428,6.962,3.578,9.923
	c0.966,1.331,0.992,1.332,1.967-0.021c3.591-4.98,8.155-8.707,13.944-10.865c0.519-0.194,1.162-0.371,0.791-1.121
	C43.104,40.443,43.036,39.405,41.912,39.36z M26.683,37.858c3.834-0.252,8.269-0.825,12.652-1.819
	c1.123-0.255,1.193-0.635,0.626-1.556c-1.629-2.651-3.25-5.306-5.04-7.852c-1.086-1.544-1.19-1.558-2.827-0.513
	c-3.585,2.289-6.155,5.422-7.706,9.38C23.466,37.853,23.521,37.913,26.683,37.858z M41.914,23.231
	c-0.528,0.043-1.528,0.122-2.527,0.208c-1.024,0.087-1.12,0.486-0.537,1.308c1.979,2.793,3.847,5.663,5.496,8.665
	c0.432,0.787,0.915,0.869,1.666,0.537c2.738-1.211,5.236-2.783,7.387-4.873c1.088-1.057,1.067-1.332-0.148-2.211
	C50.012,24.521,46.37,23.354,41.914,23.231z M60.942,40.306c-0.323-3.338-1.502-6.365-3.394-9.127
	c-0.337-0.492-0.687-0.529-1.104-0.084c-2.565,2.74-5.628,4.764-9.04,6.289c-0.253,0.113-0.469,0.271-0.512,0.586
	c-0.157,1.145,1.405,2.949,2.563,2.924c3.423-0.074,6.845-0.125,10.235,0.491C60.536,41.539,61.044,41.279,60.942,40.306z
	 M53.146,44.266c-0.727,0.071-1.59,0.208-2.455,0.224c-1.032,0.019-1.103,0.477-0.805,1.312c1.215,3.408,2.158,6.895,2.902,10.434
	c0.195,0.928,0.467,1.223,1.318,0.519c3.247-2.688,5.346-6.079,6.408-10.147c0.246-0.942-0.076-1.348-0.975-1.546
	C57.478,44.606,55.388,44.423,53.146,44.266z"/>
</svg>