<!-- Generator: Adobe Illustrator 25.2.1, SVG Export Plug-In  -->
<svg version="1.1" xmlns="http://www.w3.org/2000/svg" xmlns:xlink="http://www.w3.org/1999/xlink" x="0px" y="0px"
	 width="84.174px" height="84.225px" viewBox="0 0 84.174 84.225"
	 style="overflow:visible;DIDSABLE-background:new 0 0 84.174 84.225;" xml:space="preserve">
<style type="text/css">
	.st0{fill:#303030;}
</style>
<defs>
</defs>
<path class="st0" d="M84.174,42.059c0.01,23.246-18.831,42.154-42.016,42.166C18.81,84.237,0.109,65.441,0,42.087
	C-0.101,20.133,17.417,0.035,42.056,0C66.154-0.034,84.162,19.481,84.174,42.059z M48.508,66.89c0,3.843,0.019,7.686-0.013,11.528
	c-0.008,1.019,0.258,1.463,1.358,1.136c1.314-0.391,2.679-0.618,3.978-1.047c22.996-7.591,33.29-33.722,21.664-54.954
	C67.676,9.272,51.167,1.456,35.202,4.477C14.047,8.48,0.429,28.574,4.58,49.66C7.488,64.43,19.59,76.689,33.976,79.495
	c1.117,0.218,1.586,0.087,1.58-1.18c-0.037-7.594-0.037-15.188,0.002-22.782c0.006-1.227-0.473-1.587-1.628-1.56
	c-2.423,0.056-4.849,0-7.273,0.02c-0.913,0.008-1.332-0.348-1.324-1.297c0.026-3.111,0.031-6.222-0.003-9.332
	c-0.011-1.052,0.41-1.491,1.462-1.476c2.241,0.032,4.483,0.01,6.725,0.006c2.018-0.004,2.001-0.006,2.027-2.085
	c0.039-3.108-0.08-6.214,0.203-9.323c0.607-6.673,5.032-11.639,11.633-12.791c3.969-0.693,7.931-0.202,11.88,0.321
	c0.834,0.11,0.99,0.679,0.989,1.383c-0.004,2.562-0.018,5.124,0.007,7.685c0.01,1.002-0.445,1.395-1.417,1.377
	c-1.418-0.027-2.836-0.02-4.254,0.007c-3.859,0.074-5.998,2.213-6.07,6.093c-0.036,1.966,0.037,3.935-0.023,5.901
	c-0.032,1.068,0.349,1.465,1.425,1.447c2.835-0.047,5.672-0.001,8.508-0.018c0.942-0.006,1.306,0.304,1.134,1.321
	c-0.523,3.11-1.01,6.228-1.415,9.356c-0.146,1.126-0.673,1.453-1.715,1.433c-2.149-0.041-4.301,0.034-6.449-0.028
	c-1.147-0.033-1.507,0.404-1.492,1.527C48.539,59.296,48.507,63.093,48.508,66.89z"/>
</svg>