<!-- Generator: Adobe Illustrator 25.2.1, SVG Export Plug-In  -->
<svg version="1.1" xmlns="http://www.w3.org/2000/svg" xmlns:xlink="http://www.w3.org/1999/xlink" x="0px" y="0px"
	 width="84.545px" height="84.532px" viewBox="0 0 84.545 84.532"
	 style="overflow:visible;DISABLE
-background:new 0 0 84.545 84.532;" xml:space="preserve">
<style type="text/css">
	.st0{fill:#303030;}
</style>
<defs>
</defs>
<path class="st0" d="M42.359,0c22.43-0.031,42.153,17.894,42.186,42.171c0.033,23.689-18.706,42.36-42.285,42.36
	c-24.309,0-42.323-19.76-42.259-42.39C0.066,18.844,18.973-0.01,42.359,0z M3.919,42.216C3.886,63.4,21.012,80.647,42.132,80.698
	c21.129,0.051,38.53-17.174,38.579-38.19C80.759,21.133,63.699,3.962,42.356,3.905C21.036,3.849,3.953,20.877,3.919,42.216z"/>
<path class="st0" d="M66.036,42.153c0.001,3.246,0.026,6.492-0.004,9.738c-0.073,7.719-6.387,14.056-14.081,14.099
	c-6.446,0.036-12.893,0.037-19.339,0c-7.669-0.045-14.079-6.389-14.162-14.071c-0.07-6.491-0.071-12.984,0.001-19.476
	c0.085-7.668,6.516-13.996,14.203-14.039c6.4-0.035,12.801-0.035,19.202,0c7.797,0.042,14.101,6.349,14.175,14.148
	C66.061,35.752,66.035,38.953,66.036,42.153z M61.268,42.189c0-3.109,0.019-6.218-0.004-9.327c-0.042-5.567-4.158-9.669-9.746-9.69
	c-6.127-0.023-12.253-0.02-18.38,0c-5.635,0.018-9.8,3.955-9.902,9.577c-0.116,6.353-0.112,12.711-0.001,19.065
	c0.093,5.338,4.31,9.377,9.647,9.408c6.264,0.037,12.528,0.033,18.791,0.001c5.413-0.028,9.539-4.16,9.59-9.568
	C61.292,48.498,61.268,45.343,61.268,42.189z"/>
<path class="st0" d="M42.43,53.951c-6.618-0.005-11.786-5.232-11.75-11.884c0.034-6.43,5.295-11.628,11.762-11.622
	c6.647,0.006,11.804,5.182,11.788,11.832C54.214,48.826,49.029,53.956,42.43,53.951z M42.411,49.447
	c4.164,0.008,7.314-3.117,7.313-7.257c-0.001-4.065-3.138-7.223-7.196-7.244c-4.135-0.021-7.304,3.132-7.302,7.264
	C35.228,46.277,38.369,49.44,42.411,49.447z"/>
<path class="st0" d="M51.904,29.708c0.02-1.627,1.234-2.812,2.885-2.815c1.664-0.004,2.959,1.287,2.947,2.937
	c-0.011,1.496-1.404,2.871-2.918,2.879C53.239,32.717,51.884,31.322,51.904,29.708z"/>
</svg>